<svg width="753" height="108" viewBox="0 0 753 108" fill="none" xmlns="http://www.w3.org/2000/svg">
<g filter="url(#filter0_d_18_621)">
<rect x="4" width="745" height="100" fill="#FAFAFA"/>
</g>
<rect x="4" width="645" height="100" fill="#FF1054"/>
<path d="M35.48 67.48C33.752 67.48 32.248 67.384 30.968 67.192C29.72 67.032 28.488 66.728 27.272 66.28V59.272C28.392 59.752 29.528 60.088 30.68 60.28C31.864 60.472 33.176 60.568 34.616 60.568C36.984 60.568 38.744 60.12 39.896 59.224C41.048 58.328 41.624 57.256 41.624 56.008V55.096C40.824 55.608 39.8 56.024 38.552 56.344C37.336 56.664 36.2 56.824 35.144 56.824C31.336 56.824 28.552 55.928 26.792 54.136C25.064 52.344 24.2 49.8 24.2 46.504C24.2 44.392 24.632 42.52 25.496 40.888C26.36 39.224 27.736 37.928 29.624 37C31.512 36.072 33.992 35.608 37.064 35.608C41.544 35.608 44.824 36.664 46.904 38.776C49.016 40.856 50.072 43.976 50.072 48.136V54.088C50.072 56.648 49.48 58.952 48.296 61C47.144 63.016 45.48 64.6 43.304 65.752C41.128 66.904 38.52 67.48 35.48 67.48ZM36.872 50.392C37.672 50.392 38.488 50.248 39.32 49.96C40.152 49.672 40.92 49.32 41.624 48.904V46.696C41.624 45.064 41.24 43.88 40.472 43.144C39.736 42.376 38.568 41.992 36.968 41.992C35.4 41.992 34.216 42.36 33.416 43.096C32.648 43.832 32.264 44.856 32.264 46.168C32.264 47.512 32.6 48.552 33.272 49.288C33.944 50.024 35.144 50.392 36.872 50.392ZM62.3536 67.48C61.4576 67.48 60.4016 67.416 59.1856 67.288C58.0016 67.192 56.8176 67.032 55.6336 66.808C54.4816 66.552 53.4736 66.232 52.6096 65.848V58.6C53.3776 58.952 54.2576 59.256 55.2496 59.512C56.2736 59.768 57.2976 59.96 58.3216 60.088C59.3456 60.216 60.2096 60.28 60.9136 60.28C62.6736 60.28 63.9536 60.008 64.7536 59.464C65.5856 58.92 66.0016 58.056 66.0016 56.872C66.0016 55.752 65.7136 54.952 65.1376 54.472C64.5616 53.96 63.4736 53.704 61.8736 53.704H52.4656V49.576L53.2816 36.088H73.2976L72.6736 43H61.0096L60.7216 47.416H64.2256C67.9696 47.416 70.7376 48.248 72.5296 49.912C74.3216 51.576 75.2176 54.008 75.2176 57.208C75.2176 60.28 74.1456 62.76 72.0016 64.648C69.8896 66.536 66.6736 67.48 62.3536 67.48ZM84.9335 50.488C82.5655 50.488 80.7575 49.832 79.5095 48.52C78.2615 47.176 77.6375 45.464 77.6375 43.384C77.6375 40.984 78.2615 39.096 79.5095 37.72C80.7575 36.312 82.5655 35.608 84.9335 35.608C87.3335 35.608 89.1575 36.312 90.4055 37.72C91.6535 39.096 92.2775 40.984 92.2775 43.384C92.2775 45.464 91.6535 47.176 90.4055 48.52C89.1575 49.832 87.3335 50.488 84.9335 50.488ZM82.6295 67L98.7575 36.088H107.302L91.1255 67H82.6295ZM84.9335 45.784C85.8295 45.784 86.4695 45.56 86.8535 45.112C87.2375 44.632 87.4295 43.992 87.4295 43.192C87.4295 41.272 86.5975 40.312 84.9335 40.312C84.0695 40.312 83.4455 40.536 83.0615 40.984C82.6775 41.432 82.4855 42.168 82.4855 43.192C82.4855 43.992 82.6775 44.632 83.0615 45.112C83.4455 45.56 84.0695 45.784 84.9335 45.784ZM104.998 67.48C102.63 67.48 100.822 66.824 99.5735 65.512C98.3255 64.168 97.7015 62.456 97.7015 60.376C97.7015 58.008 98.3255 56.136 99.5735 54.76C100.822 53.352 102.63 52.648 104.998 52.648C107.398 52.648 109.222 53.352 110.47 54.76C111.718 56.136 112.342 58.008 112.342 60.376C112.342 62.456 111.718 64.168 110.47 65.512C109.222 66.824 107.398 67.48 104.998 67.48ZM104.998 62.824C105.894 62.824 106.534 62.6 106.918 62.152C107.302 61.672 107.494 61.032 107.494 60.232C107.494 58.312 106.662 57.352 104.998 57.352C104.134 57.352 103.51 57.576 103.126 58.024C102.742 58.472 102.55 59.208 102.55 60.232C102.55 61.032 102.742 61.672 103.126 62.152C103.51 62.6 104.134 62.824 104.998 62.824Z" fill="white"/>
<defs>
<filter id="filter0_d_18_621" x="0" y="0" width="753" height="108" filterUnits="userSpaceOnUse" color-interpolation-filters="sRGB">
<feFlood flood-opacity="0" result="BackgroundImageFix"/>
<feColorMatrix in="SourceAlpha" type="matrix" values="0 0 0 0 0 0 0 0 0 0 0 0 0 0 0 0 0 0 127 0" result="hardAlpha"/>
<feOffset dy="4"/>
<feGaussianBlur stdDeviation="2"/>
<feComposite in2="hardAlpha" operator="out"/>
<feColorMatrix type="matrix" values="0 0 0 0 0 0 0 0 0 0 0 0 0 0 0 0 0 0 0.25 0"/>
<feBlend mode="normal" in2="BackgroundImageFix" result="effect1_dropShadow_18_621"/>
<feBlend mode="normal" in="SourceGraphic" in2="effect1_dropShadow_18_621" result="shape"/>
</filter>
</defs>
</svg>
